<?xml version="1.0" encoding="iso-8859-1"?>
<!-- Uploaded to: SVG Repo, www.svgrepo.com, Generator: SVG Repo Mixer Tools -->
<svg height="800px" width="800px" version="1.1" id="Layer_1" xmlns="http://www.w3.org/2000/svg" xmlns:xlink="http://www.w3.org/1999/xlink" 
	 viewBox="0 0 392.663 392.663" xml:space="preserve">
<g>
	<path style="fill:#FFFFFF;" d="M285.608,83.135c12.218-2.844,23.661-6.271,33.939-10.214
		c-17.519-17.519-38.788-31.354-62.448-40.21C268.283,46.222,277.915,63.289,285.608,83.135z"/>
	<path style="fill:#FFFFFF;" d="M207.257,23.402v69.236c19.523-0.453,38.529-2.263,56.307-5.107
		C249.729,53.204,229.624,29.349,207.257,23.402z"/>
	<path style="fill:#FFFFFF;" d="M370.424,207.257h-65.681c-0.84,29.543-5.172,57.083-12.218,81.519
		c15.386,3.62,29.673,8.21,42.279,13.576C355.297,275.588,368.162,242.877,370.424,207.257z"/>
	<path style="fill:#FFFFFF;" d="M304.743,185.406h65.681c-2.263-35.62-15.127-68.396-35.62-95.03
		c-12.606,5.301-26.828,9.891-42.279,13.511C299.572,128.323,303.903,155.927,304.743,185.406z"/>
	<path style="fill:#FFFFFF;" d="M207.257,185.406h75.701c-0.905-27.798-5.172-54.109-12.024-77.123
		c-20.04,3.491-41.503,5.56-63.612,6.077v70.982h-0.065V185.406z"/>
	<path style="fill:#FFFFFF;" d="M257.099,359.822c23.661-8.792,44.865-22.626,62.448-40.21
		c-10.343-3.943-21.721-7.434-33.939-10.214C277.915,329.374,268.283,346.44,257.099,359.822z"/>
	<path style="fill:#FFFFFF;" d="M263.564,305.131c-17.778-2.844-36.784-4.655-56.307-5.107v69.236
		C229.624,363.313,249.729,339.459,263.564,305.131z"/>
	<path style="fill:#FFFFFF;" d="M207.257,278.238c22.109,0.517,43.572,2.65,63.612,6.077c6.853-23.014,11.184-49.325,12.024-77.059
		h-75.766v70.917h0.129V278.238z"/>
</g>
<path style="fill:#56ACE0;" d="M196.331,54.626c78.287,0,141.705,63.418,141.705,141.705s-63.418,141.705-141.705,141.705V54.626z"
	/>
<path style="fill:#FFFFFF;" d="M38.982,370.812H63.16v-58.117c0-6.012,4.848-10.925,10.925-10.925
	c6.077,0,10.925,4.848,10.925,10.925v58.117h24.178v-94.966H38.982V370.812z"/>
<g>
	<path style="fill:#FFC10D;" d="M74.02,75.378c14.739,0,26.764-11.96,26.764-26.764c0-14.739-11.96-26.764-26.764-26.764
		c-14.739,0-26.764,11.96-26.764,26.764C47.257,63.418,59.345,75.378,74.02,75.378z"/>
	<path style="fill:#FFC10D;" d="M107.83,133.947l-24.566,39.046c-4.267,6.788-14.158,6.788-18.489,0L40.21,133.947
		c-10.279,0.84-18.36,9.438-18.36,19.911v19.846h25.471c6.659,0,11.895,5.883,10.731,12.735c-0.84,5.301-5.883,9.051-11.378,9.051
		H21.851v21.527h9.503c6.659,0,11.895,5.883,10.731,12.735c-0.84,5.301-5.883,9.051-11.378,9.051h-8.857v15.127H126.19V153.923
		h0.065C126.255,143.386,118.109,134.853,107.83,133.947z"/>
</g>
<g>
	<path style="fill:#194F82;" d="M74.02,97.164c26.828,0,48.549-21.786,48.549-48.549C122.634,21.786,100.848,0,74.02,0
		S25.471,21.786,25.471,48.614C25.471,75.378,47.257,97.164,74.02,97.164z M74.02,21.851c14.739,0,26.764,11.96,26.764,26.764
		c0,14.739-11.96,26.764-26.764,26.764c-14.739,0-26.764-11.96-26.764-26.634S59.345,21.851,74.02,21.851z"/>
	<path style="fill:#194F82;" d="M106.214,112.097h-5.301c-4.267,0-8.145,2.457-9.891,6.335L74.02,146.101l-16.937-27.604
		c-1.745-3.879-5.624-6.335-9.891-6.335h-5.301c-23.079-0.065-41.826,18.683-41.826,41.697v110.998
		c0,6.012,4.848,10.925,10.925,10.925h6.206v105.891c0,6.012,4.848,10.925,10.925,10.925h91.863c6.012,0,10.925-4.848,10.925-10.925
		V275.782h6.206c6.012,0,10.925-4.848,10.925-10.925V153.923C148.04,130.909,129.358,112.097,106.214,112.097z M109.059,370.812
		H84.881v-58.117c0-6.012-4.848-10.925-10.925-10.925s-10.925,4.848-10.925,10.925v58.117H38.982v-94.966h70.077V370.812z
		 M126.319,253.996H21.851v-15.127h8.857c5.43,0,10.408-3.685,11.378-9.051c1.099-6.788-4.073-12.735-10.731-12.735h-9.503v-21.527
		h24.954c5.43,0,10.408-3.685,11.378-9.051c1.099-6.853-4.137-12.8-10.731-12.8H21.915v-19.782c0-10.537,8.145-19.071,18.36-19.911
		l24.566,39.046c4.267,6.788,14.158,6.788,18.489,0l24.566-39.046c10.279,0.84,18.36,9.438,18.36,19.911v100.073H126.319z"/>
	<path style="fill:#194F82;" d="M196.331,0.065c-6.012,0-10.925,4.848-10.925,10.925v370.747c0,6.012,4.848,10.925,10.925,10.925
		c108.283,0,196.267-87.984,196.267-196.267S304.614,0.065,196.331,0.065z M370.424,185.406h-65.681
		c-0.84-29.543-5.172-57.083-12.218-81.519c15.386-3.62,29.673-8.21,42.279-13.511C355.297,117.075,368.162,149.786,370.424,185.406
		z M285.608,83.135c-7.628-19.846-17.325-36.913-28.444-50.36c23.661,8.792,44.865,22.626,62.448,40.21
		C309.204,76.929,297.762,80.356,285.608,83.135z M270.804,108.347c6.853,23.014,11.184,49.325,12.024,77.123h-75.701v-71.046
		C229.301,113.907,250.828,111.774,270.804,108.347z M207.257,92.574V23.402c22.432,5.947,42.473,29.931,56.307,64.129
		C245.786,90.376,226.78,92.121,207.257,92.574z M282.958,207.257c-0.905,27.798-5.172,54.109-12.024,77.059
		c-20.105-3.491-41.503-5.56-63.612-6.077v-71.111h75.636V207.257z M207.257,300.024c19.523,0.453,38.529,2.263,56.307,5.107
		c-13.834,34.263-33.939,58.182-56.307,64.129V300.024z M257.099,359.822c11.184-13.446,20.881-30.513,28.509-50.36
		c12.218,2.844,23.661,6.271,33.939,10.214C301.964,337.196,280.695,351.03,257.099,359.822z M292.525,288.776
		c7.046-24.436,11.378-51.976,12.218-81.519h65.681c-2.263,35.62-15.127,68.396-35.62,95.03
		C322.198,296.921,307.911,292.396,292.525,288.776z"/>
</g>
</svg>